<svg xmlns="http://www.w3.org/2000/svg" width="1200" height="300" viewBox="0 0 1200 300" role="img" aria-labelledby="title desc">
  <title id="title">OP-1 Studio</title>
  <desc id="desc">Bannière sombre avec une machine musicale abstraite et le nom OP-1 Studio.</desc>
  <defs>
    <linearGradient id="bg" x1="0" y1="0" x2="1" y2="1">
      <stop offset="0" stop-color="#f6f6f4"/>
      <stop offset="1" stop-color="#d9dbd9"/>
    </linearGradient>
    <linearGradient id="screen" x1="0" y1="0" x2="1" y2="1">
      <stop offset="0" stop-color="#23d5ab"/>
      <stop offset="1" stop-color="#0891b2"/>
    </linearGradient>
    <filter id="shadow" x="-20%" y="-20%" width="140%" height="140%">
      <feDropShadow dx="0" dy="12" stdDeviation="12" flood-color="#000" flood-opacity=".35"/>
    </filter>
  </defs>
  <rect width="1200" height="300" rx="28" fill="url(#bg)"/>
  <circle cx="1070" cy="-35" r="210" fill="#ffffff" opacity=".45"/>
  <circle cx="60" cy="320" r="180" fill="#4cace1" opacity=".08"/>
  <g transform="translate(70 62)" filter="url(#shadow)">
    <rect width="410" height="176" rx="18" fill="#f5f2e9"/>
    <rect x="24" y="23" width="152" height="66" rx="7" fill="#141827"/>
    <path d="M42 68 C63 30 84 83 106 47 S145 59 158 38" fill="none" stroke="url(#screen)" stroke-width="6" stroke-linecap="round"/>
    <g>
      <circle cx="230" cy="48" r="19" fill="#2563eb"/><circle cx="279" cy="48" r="19" fill="#22c55e"/>
      <circle cx="328" cy="48" r="19" fill="#f59e0b"/><circle cx="377" cy="48" r="19" fill="#ef4444"/>
    </g>
    <g fill="#dbd8d0">
      <rect x="24" y="108" width="25" height="49" rx="3"/><rect x="54" y="108" width="25" height="49" rx="3"/>
      <rect x="84" y="108" width="25" height="49" rx="3"/><rect x="114" y="108" width="25" height="49" rx="3"/>
      <rect x="144" y="108" width="25" height="49" rx="3"/><rect x="174" y="108" width="25" height="49" rx="3"/>
      <rect x="204" y="108" width="25" height="49" rx="3"/><rect x="234" y="108" width="25" height="49" rx="3"/>
      <rect x="264" y="108" width="25" height="49" rx="3"/><rect x="294" y="108" width="25" height="49" rx="3"/>
      <rect x="324" y="108" width="25" height="49" rx="3"/><rect x="354" y="108" width="32" height="49" rx="3"/>
    </g>
    <g fill="#242936">
      <rect x="43" y="108" width="17" height="29" rx="2"/><rect x="73" y="108" width="17" height="29" rx="2"/>
      <rect x="133" y="108" width="17" height="29" rx="2"/><rect x="163" y="108" width="17" height="29" rx="2"/>
      <rect x="193" y="108" width="17" height="29" rx="2"/><rect x="253" y="108" width="17" height="29" rx="2"/>
      <rect x="283" y="108" width="17" height="29" rx="2"/><rect x="343" y="108" width="17" height="29" rx="2"/>
    </g>
  </g>
  <g transform="translate(540 78)">
    <text x="0" y="58" fill="#202326" font-family="Inter,Segoe UI,sans-serif" font-size="72" font-weight="800" letter-spacing="-3">OP-1 STUDIO</text>
    <text x="4" y="101" fill="#6f7477" font-family="Inter,Segoe UI,sans-serif" font-size="22" letter-spacing="3">FIRMWARE · BACKUP · SOUND · TAPE</text>
    <rect x="4" y="126" width="104" height="8" rx="4" fill="#4cace1"/>
    <rect x="120" y="126" width="104" height="8" rx="4" fill="#22c55e"/>
    <rect x="236" y="126" width="104" height="8" rx="4" fill="#f59e0b"/>
    <rect x="352" y="126" width="104" height="8" rx="4" fill="#ef4444"/>
  </g>
</svg>
